<?xml version="1.0" encoding="UTF-8"?><svg id="a" xmlns="http://www.w3.org/2000/svg" viewBox="0 0 792 612"><defs><style>.b{fill:#fbfbfb;}</style></defs><path class="b" d="M206.97,277.89v10.35h-.47v-5.59c0-2.66-.52-4.13-3.19-4.13h-15.52v17.08h10.61c2.61,0,3.19-1.67,3.19-4.34v-1.04h.42v11.29h-.42v-.99c0-2.66-.58-4.34-3.19-4.34h-10.61v14.68c0,2.61,.47,3.19,3.14,3.19h2.87v.42h-13.59v-.42h1.04c2.67,0,3.14-.57,3.14-3.19v-29.31c0-2.67-.47-3.19-3.14-3.19h-1.04v-.47h26.75Z"/><path class="b" d="M249.49,304.12v10.34h-27.64v-.42h1.05c2.66,0,3.13-.57,3.13-3.19v-29.31c0-2.67-.47-3.19-3.13-3.19h-1.05v-.47h26.7v10.35h-.42v-5.59c0-2.66-.52-4.13-3.19-4.13h-15.52v17.08h10.55c2.66,0,3.19-1.67,3.19-4.34v-1.04h.47v11.29h-.47v-.99c0-2.66-.52-4.34-3.19-4.34h-10.55v17.66h16.46c2.61,0,3.14-1.46,3.14-4.13v-5.59h.47Z"/><path class="b" d="M301.27,310.44c-.99,2.09-3.03,4.6-6.17,4.34-4.08-.31-6.06-3.24-7.68-9.46-2.14-8.2-5.54-8.2-12.44-8.2h-3.29v13.74c0,2.61,.47,3.19,3.14,3.19h2.87v.42h-13.58v-.42h1.05c2.66,0,3.13-.57,3.13-3.19v-29.36c0-2.61-.47-3.14-3.13-3.14h-1.05v-.47h14.42c9.09,0,13.84,3.24,13.84,9.61,0,5.43-3.5,8.57-10.14,9.4,3.4,.52,6.79,2.09,8.36,6.43,1.67,4.7,1.78,10.19,5.17,10.76,2.09,.37,4.13-1.62,5.12-3.81l.37,.16Zm-29.57-13.95h5.96c8.88,0,11.13-4.18,11.13-8.99s-2.25-8.99-11.13-8.99h-5.96v17.97Z"/><path class="b" d="M351.89,281.55v29.31c0,2.61,.47,3.19,3.13,3.19h1.05v.42h-11.7v-.42h1.05c2.66,0,3.14-.57,3.14-3.19v-31.92l-14.58,25.5h-.63l-14.94-23.56v29.99c0,2.61,1.88,3.19,4.55,3.19h1.05v.42h-11.76v-.42h1.05c2.66,0,4.55-.57,4.55-3.19v-29.31c0-2.67-1.88-3.19-4.55-3.19h-1.05v-.47h8.46l14.58,23.15,13.27-23.15h7.52v.47h-1.05c-2.66,0-3.13,.52-3.13,3.19Z"/><path class="b" d="M405.54,314.04v.42h-11.28v-.42h1.04c2.66,0,2.51-.68,1.41-3.19l-3.61-8.57h-16.14l-3.34,8.57c-.99,2.61-.42,3.19,2.25,3.19h1.04v.42h-8.83v-.42h.89c2.35,0,3.19-.99,4.07-3.19l12.75-32.97h.63l13.95,32.97c1.15,2.56,1.93,3.19,4.6,3.19h.57Zm-12.7-12.38l-8.2-19.23-7.42,19.23h15.62Z"/><path class="b" d="M442.11,277.89v10.35h-.42v-5.59c0-2.66-.57-4.13-3.19-4.13h-9.61v32.34c0,2.61,.47,3.19,3.14,3.19h1.05v.42h-11.7v-.42h.99c2.66,0,3.14-.57,3.14-3.19v-32.34h-9.56c-2.66,0-3.19,1.46-3.19,4.13v5.59h-.42v-10.35h29.78Z"/><path class="b" d="M483.84,304.12v10.34h-27.64v-.42h1.05c2.66,0,3.13-.57,3.13-3.19v-29.31c0-2.67-.47-3.19-3.13-3.19h-1.05v-.47h26.7v10.35h-.42v-5.59c0-2.66-.52-4.13-3.19-4.13h-15.52v17.08h10.55c2.66,0,3.19-1.67,3.19-4.34v-1.04h.47v11.29h-.47v-.99c0-2.66-.52-4.34-3.19-4.34h-10.55v17.66h16.46c2.61,0,3.14-1.46,3.14-4.13v-5.59h.47Z"/><path class="b" d="M535.62,310.44c-.99,2.09-3.03,4.6-6.17,4.34-4.08-.31-6.06-3.24-7.68-9.46-2.14-8.2-5.54-8.2-12.44-8.2h-3.29v13.74c0,2.61,.47,3.19,3.14,3.19h2.87v.42h-13.58v-.42h1.05c2.66,0,3.13-.57,3.13-3.19v-29.36c0-2.61-.47-3.14-3.13-3.14h-1.05v-.47h14.42c9.09,0,13.84,3.24,13.84,9.61,0,5.43-3.5,8.57-10.14,9.4,3.4,.52,6.79,2.09,8.36,6.43,1.67,4.7,1.78,10.19,5.17,10.76,2.09,.37,4.13-1.62,5.12-3.81l.37,.16Zm-29.57-13.95h5.96c8.88,0,11.13-4.18,11.13-8.99s-2.25-8.99-11.13-8.99h-5.96v17.97Z"/><path class="b" d="M583.73,310.44c-.99,2.09-3.03,4.6-6.17,4.34-4.07-.31-6.06-3.24-7.68-9.46-2.14-8.2-5.54-8.2-12.43-8.2h-3.29v13.74c0,2.61,.47,3.19,3.14,3.19h2.88v.42h-13.59v-.42h1.05c2.66,0,3.14-.57,3.14-3.19v-29.36c0-2.61-.47-3.14-3.14-3.14h-1.05v-.47h14.42c9.09,0,13.85,3.24,13.85,9.61,0,5.43-3.5,8.57-10.14,9.4,3.39,.52,6.79,2.09,8.36,6.43,1.67,4.7,1.78,10.19,5.17,10.76,2.09,.37,4.13-1.62,5.12-3.81l.37,.16Zm-29.57-13.95h5.96c8.88,0,11.13-4.18,11.13-8.99s-2.25-8.99-11.13-8.99h-5.96v17.97Z"/><path class="b" d="M631.11,314.04v.42h-11.29v-.42h1.05c2.66,0,2.51-.68,1.41-3.19l-3.6-8.57h-16.15l-3.34,8.57c-.99,2.61-.42,3.19,2.25,3.19h1.05v.42h-8.83v-.42h.89c2.35,0,3.19-.99,4.08-3.19l12.75-32.97h.63l13.95,32.97c1.15,2.56,1.93,3.19,4.6,3.19h.58Zm-12.7-12.38l-8.2-19.23-7.42,19.23h15.62Z"/><path class="b" d="M254.22,341.48c0-.1,.08-.18,.18-.18h5.38c3.27,0,5.49,1.65,5.49,4.62,0,2.14-1.31,3.63-3.32,4.23,2.33,.45,3.89,1.91,3.89,4.52,0,2.93-2.4,4.91-5.83,4.91h-5.62c-.1,0-.18-.08-.18-.18v-17.92Zm5.62,8.52c2.9,0,4.96-1.52,4.96-4.08,0-2.69-2.01-4.15-5.02-4.15h-5.09v8.23h5.15Zm.18,9.12c3.19,0,5.36-1.78,5.36-4.44,0-2.9-2.12-4.21-5.04-4.21h-5.64v8.65h5.33Z"/><path class="b" d="M278.54,352.74c1.28,0,2.51,.39,3.08,.6v-.97c0-2.06-.68-3.03-2.9-3.03-1.99,0-3.19,.78-3.19,.78-.13,.08-.18,.03-.23-.05l-.08-.13c-.08-.13,0-.18,.05-.21,0,0,1.31-.86,3.45-.86,2.56,0,3.37,1.12,3.37,3.5v7.03c0,.1-.08,.18-.18,.18h-.1c-.1,0-.18-.08-.18-.18v-1.18c-.81,.7-2.33,1.62-4.05,1.62-2.04,0-3.63-1.33-3.63-3.53,0-2.06,1.83-3.58,4.6-3.58Zm-.96,6.64c1.91,0,3.53-1.15,4.05-1.8v-3.76c-.37-.1-1.7-.6-3.08-.6-2.51,0-4.13,1.31-4.13,3.11,0,1.93,1.38,3.06,3.16,3.06Z"/><path class="b" d="M291.47,349.32c0-.1,.08-.18,.18-.18h.1c.1,0,.18,.08,.18,.18v1.38c.52-.73,1.67-1.83,3.39-1.83,1.28,0,1.93,.47,1.93,.47,.08,.05,.1,.16,.05,.23l-.08,.13c-.03,.05-.13,.1-.23,.05,0,0-.6-.42-1.67-.42-2.09,0-3.21,1.83-3.39,2.14v7.91c0,.1-.08,.18-.18,.18h-.1c-.1,0-.18-.08-.18-.18v-10.08Z"/><path class="b" d="M309.62,348.87c2.48,0,4,1.44,4,1.44,.08,.08,.05,.16,0,.21l-.11,.1c-.08,.08-.18,.05-.26-.03,0,0-1.33-1.25-3.63-1.25-2.8,0-5.15,2.06-5.15,4.96s2.43,5.07,5.15,5.07c2.33,0,3.84-1.65,3.84-1.65,.08-.08,.16-.08,.21-.03l.13,.13c.05,.05,.08,.1,.03,.16,0,0-1.62,1.86-4.21,1.86-2.98,0-5.59-2.33-5.59-5.54s2.53-5.43,5.59-5.43Z"/><path class="b" d="M326.91,359.37c1.65,0,2.98-.65,3.55-1.12,.1-.08,.18-.03,.21,.03l.1,.16c.05,.08,0,.13-.05,.18-.65,.5-2.06,1.23-3.81,1.23-3.19,0-5.15-2.46-5.15-5.54s1.96-5.43,5.15-5.43c2.77,0,4.75,1.96,4.75,4.78,0,.18-.03,.65-.1,.78-.03,.05-.1,.1-.16,.1h-9.14c.08,2.72,1.8,4.83,4.65,4.83Zm4.26-5.28c.03-.16,.03-.34,.03-.44,0-2.56-1.83-4.31-4.28-4.31-2.85,0-4.55,2.09-4.65,4.75h8.91Z"/><path class="b" d="M340.23,341.48c0-.1,.08-.18,.18-.18h.1c.1,0,.18,.08,.18,.18v17.92c0,.1-.08,.18-.18,.18h-.1c-.1,0-.18-.08-.18-.18v-17.92Z"/><path class="b" d="M354.71,348.87c2.98,0,5.3,2.43,5.3,5.46s-2.33,5.51-5.3,5.51-5.3-2.43-5.3-5.51,2.32-5.46,5.3-5.46Zm0,10.5c2.72,0,4.83-2.22,4.83-5.04s-2.12-4.99-4.83-4.99-4.83,2.22-4.83,4.99,2.11,5.04,4.83,5.04Z"/><path class="b" d="M368.7,349.32c0-.1,.08-.18,.18-.18h.1c.1,0,.18,.08,.18,.18v1.44c.65-.7,2.04-1.88,4.07-1.88,2.82,0,4.34,1.7,4.34,4.86v5.67c0,.1-.08,.18-.18,.18h-.1c-.1,0-.18-.08-.18-.18v-5.67c0-2.85-1.36-4.39-3.87-4.39-2.33,0-3.87,1.86-4.07,2.14v7.91c0,.1-.08,.18-.18,.18h-.1c-.1,0-.18-.08-.18-.18v-10.08Z"/><path class="b" d="M390.62,352.74c1.28,0,2.51,.39,3.08,.6v-.97c0-2.06-.68-3.03-2.9-3.03-1.99,0-3.19,.78-3.19,.78-.13,.08-.18,.03-.23-.05l-.08-.13c-.08-.13,0-.18,.05-.21,0,0,1.31-.86,3.45-.86,2.56,0,3.37,1.12,3.37,3.5v7.03c0,.1-.08,.18-.18,.18h-.1c-.1,0-.18-.08-.18-.18v-1.18c-.81,.7-2.33,1.62-4.05,1.62-2.04,0-3.63-1.33-3.63-3.53,0-2.06,1.83-3.58,4.6-3.58Zm-.96,6.64c1.91,0,3.53-1.15,4.05-1.8v-3.76c-.37-.1-1.7-.6-3.08-.6-2.51,0-4.13,1.31-4.13,3.11,0,1.93,1.38,3.06,3.16,3.06Z"/><path class="b" d="M414.99,352.74c0-.34,.29-.6,.63-.6,.36,0,.63,.26,.63,.6s-.26,.63-.63,.63c-.34,0-.63-.29-.63-.63Z"/><path class="b" d="M440.25,340.98c.03-.18,.31-.18,.36,0l5.67,17.66,5.59-17.66c.05-.18,.31-.18,.37,0l3.94,18.39c.03,.13,.03,.18-.08,.21l-.21,.05c-.08,.03-.13-.03-.16-.16l-3.76-17.29-5.51,17.61c-.05,.18-.31,.18-.37,0l-5.62-17.61-3.63,17.29c-.03,.13-.08,.18-.16,.16l-.21-.05c-.1-.03-.1-.08-.08-.21l3.84-18.39Z"/><path class="b" d="M469.14,359.37c1.65,0,2.98-.65,3.55-1.12,.1-.08,.18-.03,.21,.03l.1,.16c.05,.08,0,.13-.05,.18-.65,.5-2.06,1.23-3.81,1.23-3.19,0-5.15-2.46-5.15-5.54s1.96-5.43,5.15-5.43c2.77,0,4.75,1.96,4.75,4.78,0,.18-.03,.65-.1,.78-.03,.05-.1,.1-.16,.1h-9.14c.08,2.72,1.8,4.83,4.65,4.83Zm4.26-5.28c.03-.16,.03-.34,.03-.44,0-2.56-1.83-4.31-4.28-4.31-2.85,0-4.55,2.09-4.65,4.75h8.91Z"/><path class="b" d="M482.46,349.32c0-.1,.08-.18,.18-.18h.1c.1,0,.18,.08,.18,.18v1.44c.65-.7,2.04-1.88,4.07-1.88,2.82,0,4.34,1.7,4.34,4.86v5.67c0,.1-.08,.18-.18,.18h-.1c-.1,0-.18-.08-.18-.18v-5.67c0-2.85-1.36-4.39-3.87-4.39-2.32,0-3.87,1.86-4.07,2.14v7.91c0,.1-.08,.18-.18,.18h-.1c-.1,0-.18-.08-.18-.18v-10.08Z"/><path class="b" d="M505.18,348.87c2.98,0,5.3,2.43,5.3,5.46s-2.32,5.51-5.3,5.51-5.3-2.43-5.3-5.51,2.33-5.46,5.3-5.46Zm0,10.5c2.72,0,4.83-2.22,4.83-5.04s-2.11-4.99-4.83-4.99-4.83,2.22-4.83,4.99,2.12,5.04,4.83,5.04Z"/><path class="b" d="M519.18,349.32c0-.1,.08-.18,.18-.18h.1c.1,0,.18,.08,.18,.18v1.38c.52-.73,1.67-1.83,3.4-1.83,1.28,0,1.93,.47,1.93,.47,.08,.05,.1,.16,.05,.23l-.08,.13c-.03,.05-.13,.1-.23,.05,0,0-.6-.42-1.67-.42-2.09,0-3.21,1.83-3.4,2.14v7.91c0,.1-.08,.18-.18,.18h-.1c-.1,0-.18-.08-.18-.18v-10.08Z"/><path class="b" d="M537.34,348.87c2.48,0,4,1.44,4,1.44,.08,.08,.05,.16,0,.21l-.1,.1c-.08,.08-.18,.05-.26-.03,0,0-1.33-1.25-3.63-1.25-2.79,0-5.15,2.06-5.15,4.96s2.43,5.07,5.15,5.07c2.33,0,3.84-1.65,3.84-1.65,.08-.08,.16-.08,.21-.03l.13,.13c.05,.05,.08,.1,.03,.16,0,0-1.62,1.86-4.21,1.86-2.98,0-5.59-2.33-5.59-5.54s2.53-5.43,5.59-5.43Z"/><path class="b" d="M553.95,352.74c1.28,0,2.51,.39,3.08,.6v-.97c0-2.06-.68-3.03-2.9-3.03-1.99,0-3.19,.78-3.19,.78-.13,.08-.18,.03-.23-.05l-.08-.13c-.08-.13,0-.18,.05-.21,0,0,1.31-.86,3.45-.86,2.56,0,3.37,1.12,3.37,3.5v7.03c0,.1-.08,.18-.18,.18h-.1c-.1,0-.18-.08-.18-.18v-1.18c-.81,.7-2.32,1.62-4.05,1.62-2.04,0-3.63-1.33-3.63-3.53,0-2.06,1.83-3.58,4.6-3.58Zm-.97,6.64c1.91,0,3.53-1.15,4.05-1.8v-3.76c-.36-.1-1.7-.6-3.08-.6-2.51,0-4.13,1.31-4.13,3.11,0,1.93,1.38,3.06,3.16,3.06Z"/></svg>